<svg xmlns="http://www.w3.org/2000/svg" xmlns:xlink="http://www.w3.org/1999/xlink" width="3840" zoomAndPan="magnify" viewBox="0 0 2880 599.999999" height="800" preserveAspectRatio="xMidYMid meet" version="1.0"><defs><g/></defs><g fill="rgb(100%, 100%, 100%)" fill-opacity="1"><g transform="translate(59.999999, 571.380528)"><g><path d="M 232.375 -339.796875 C 308.851562 -319.328125 362.679688 -294.84375 393.859375 -266.34375 C 425.035156 -237.851562 440.625 -201.441406 440.625 -157.109375 C 440.625 -103.523438 422.113281 -62.722656 385.09375 -34.703125 C 348.070312 -6.691406 292.296875 7.3125 217.765625 7.3125 C 166.117188 7.3125 115.695312 -4.132812 66.5 -27.03125 C 55.78125 -31.90625 48.347656 -40.066406 44.203125 -51.515625 C 40.066406 -62.960938 39.703125 -74.773438 43.109375 -86.953125 L 52.609375 -121.296875 C 55.535156 -131.046875 61.867188 -137.742188 71.609375 -141.390625 C 81.359375 -145.046875 90.859375 -144.4375 100.109375 -139.5625 C 144.929688 -117.15625 186.582031 -105.953125 225.0625 -105.953125 C 268.90625 -105.953125 290.828125 -121.785156 290.828125 -153.453125 C 290.828125 -173.910156 271.34375 -189.742188 232.375 -200.953125 C 161.25 -221.410156 110.582031 -246.007812 80.375 -274.75 C 50.175781 -303.5 35.078125 -339.796875 35.078125 -383.640625 C 35.078125 -431.867188 53.585938 -470.109375 90.609375 -498.359375 C 127.628906 -526.609375 179.753906 -540.734375 246.984375 -540.734375 C 298.140625 -540.734375 346.125 -533.664062 390.9375 -519.53125 C 402.144531 -516.125 410.550781 -508.941406 416.15625 -497.984375 C 421.757812 -487.023438 423.34375 -475.703125 420.90625 -464.015625 L 412.859375 -431.140625 C 410.910156 -420.898438 405.066406 -413.34375 395.328125 -408.46875 C 385.585938 -403.601562 375.597656 -403.117188 365.359375 -407.015625 C 327.847656 -420.660156 290.828125 -427.484375 254.296875 -427.484375 C 231.398438 -427.484375 214.101562 -423.460938 202.40625 -415.421875 C 190.71875 -407.378906 184.875 -396.785156 184.875 -383.640625 C 184.875 -363.171875 200.707031 -348.554688 232.375 -339.796875 Z M 232.375 -339.796875 "/></g></g></g><g fill="rgb(100%, 100%, 100%)" fill-opacity="1"><g transform="translate(534.978989, 571.380528)"><g><path d="M 53.34375 -41.65625 L 53.34375 -491.78125 C 53.34375 -502.988281 57.484375 -512.726562 65.765625 -521 C 74.046875 -529.28125 83.789062 -533.421875 95 -533.421875 L 362.4375 -533.421875 C 373.644531 -533.421875 383.390625 -529.28125 391.671875 -521 C 399.953125 -512.726562 404.09375 -502.988281 404.09375 -491.78125 L 404.09375 -458.171875 C 404.09375 -446.960938 399.953125 -437.21875 391.671875 -428.9375 C 383.390625 -420.65625 373.644531 -416.515625 362.4375 -416.515625 L 206.0625 -416.515625 C 201.675781 -416.515625 199.484375 -414.566406 199.484375 -410.671875 L 199.484375 -335.40625 C 199.484375 -331.019531 201.675781 -328.828125 206.0625 -328.828125 L 347.828125 -328.828125 C 359.035156 -328.828125 368.78125 -324.6875 377.0625 -316.40625 C 385.34375 -308.125 389.484375 -298.378906 389.484375 -287.171875 L 389.484375 -260.875 C 389.484375 -249.664062 385.34375 -239.921875 377.0625 -231.640625 C 368.78125 -223.359375 359.035156 -219.21875 347.828125 -219.21875 L 206.0625 -219.21875 C 201.675781 -219.21875 199.484375 -217.269531 199.484375 -213.375 L 199.484375 -123.5 C 199.484375 -119.113281 201.675781 -116.921875 206.0625 -116.921875 L 362.4375 -116.921875 C 373.644531 -116.921875 383.390625 -112.78125 391.671875 -104.5 C 399.953125 -96.21875 404.09375 -86.472656 404.09375 -75.265625 L 404.09375 -41.65625 C 404.09375 -30.445312 399.953125 -20.703125 391.671875 -12.421875 C 383.390625 -4.140625 373.644531 0 362.4375 0 L 95 0 C 83.789062 0 74.046875 -4.140625 65.765625 -12.421875 C 57.484375 -20.703125 53.34375 -30.445312 53.34375 -41.65625 Z M 53.34375 -41.65625 "/></g></g></g><g fill="rgb(100%, 100%, 100%)" fill-opacity="1"><g transform="translate(985.112974, 571.380528)"><g><path d="M 356.59375 -241.875 L 356.59375 -491.78125 C 356.59375 -502.988281 360.734375 -512.726562 369.015625 -521 C 377.296875 -529.28125 387.039062 -533.421875 398.25 -533.421875 L 457.4375 -533.421875 C 468.644531 -533.421875 478.390625 -529.28125 486.671875 -521 C 494.953125 -512.726562 499.09375 -502.988281 499.09375 -491.78125 L 499.09375 -41.65625 C 499.09375 -30.445312 494.953125 -20.703125 486.671875 -12.421875 C 478.390625 -4.140625 468.644531 0 457.4375 0 L 398.25 0 C 370.476562 0 350.019531 -12.175781 336.875 -36.53125 L 197.296875 -291.5625 C 197.296875 -292.050781 197.050781 -292.296875 196.5625 -292.296875 C 196.082031 -292.296875 195.84375 -292.050781 195.84375 -291.5625 L 195.84375 -41.65625 C 195.84375 -30.445312 191.695312 -20.703125 183.40625 -12.421875 C 175.125 -4.140625 165.382812 0 154.1875 0 L 95 0 C 83.789062 0 74.046875 -4.140625 65.765625 -12.421875 C 57.484375 -20.703125 53.34375 -30.445312 53.34375 -41.65625 L 53.34375 -491.78125 C 53.34375 -502.988281 57.484375 -512.726562 65.765625 -521 C 74.046875 -529.28125 83.789062 -533.421875 95 -533.421875 L 154.1875 -533.421875 C 181.957031 -533.421875 202.414062 -521.25 215.5625 -496.90625 L 355.140625 -241.875 C 355.140625 -241.382812 355.378906 -241.140625 355.859375 -241.140625 C 356.347656 -241.140625 356.59375 -241.382812 356.59375 -241.875 Z M 356.59375 -241.875 "/></g></g></g><g fill="rgb(100%, 100%, 100%)" fill-opacity="1"><g transform="translate(1537.550023, 571.380528)"><g><path d="M 46.03125 -458.171875 L 46.03125 -491.78125 C 46.03125 -502.988281 50.171875 -512.726562 58.453125 -521 C 66.734375 -529.28125 76.476562 -533.421875 87.6875 -533.421875 L 398.984375 -533.421875 C 410.179688 -533.421875 419.921875 -529.28125 428.203125 -521 C 436.484375 -512.726562 440.625 -502.988281 440.625 -491.78125 L 440.625 -458.171875 C 440.625 -430.398438 432.34375 -405.554688 415.78125 -383.640625 L 218.484375 -119.109375 C 218.484375 -118.617188 218.363281 -118.375 218.125 -118.375 C 217.882812 -118.375 217.765625 -118.128906 217.765625 -117.640625 C 217.765625 -117.160156 218.003906 -116.921875 218.484375 -116.921875 L 398.984375 -116.921875 C 410.179688 -116.921875 419.921875 -112.78125 428.203125 -104.5 C 436.484375 -96.21875 440.625 -86.472656 440.625 -75.265625 L 440.625 -41.65625 C 440.625 -30.445312 436.484375 -20.703125 428.203125 -12.421875 C 419.921875 -4.140625 410.179688 0 398.984375 0 L 87.6875 0 C 76.476562 0 66.734375 -4.140625 58.453125 -12.421875 C 50.171875 -20.703125 46.03125 -30.445312 46.03125 -41.65625 L 46.03125 -75.265625 C 46.03125 -103.035156 54.3125 -127.878906 70.875 -149.796875 L 268.171875 -414.328125 C 268.171875 -414.816406 268.289062 -415.0625 268.53125 -415.0625 C 268.78125 -415.0625 268.90625 -415.300781 268.90625 -415.78125 C 268.90625 -416.269531 268.660156 -416.515625 268.171875 -416.515625 L 87.6875 -416.515625 C 76.476562 -416.515625 66.734375 -420.65625 58.453125 -428.9375 C 50.171875 -437.21875 46.03125 -446.960938 46.03125 -458.171875 Z M 46.03125 -458.171875 "/></g></g></g><g fill="rgb(100%, 100%, 100%)" fill-opacity="1"><g transform="translate(2024.220853, 571.380528)"><g><path d="M 214.109375 -211.90625 L 297.40625 -211.90625 C 301.789062 -211.90625 303.5 -213.859375 302.53125 -217.765625 L 257.21875 -408.484375 C 257.21875 -408.972656 256.726562 -409.21875 255.75 -409.21875 C 255.269531 -409.21875 255.03125 -408.972656 255.03125 -408.484375 L 209.71875 -217.765625 C 208.75 -213.859375 210.210938 -211.90625 214.109375 -211.90625 Z M 222.140625 -533.421875 L 293.03125 -533.421875 C 305.207031 -533.421875 316.285156 -529.769531 326.265625 -522.46875 C 336.253906 -515.164062 343.195312 -505.664062 347.09375 -493.96875 L 496.90625 -39.453125 C 500.3125 -29.710938 498.96875 -20.703125 492.875 -12.421875 C 486.789062 -4.140625 478.632812 0 468.40625 0 L 396.0625 0 C 383.882812 0 373.046875 -3.773438 363.546875 -11.328125 C 354.046875 -18.878906 347.832031 -28.5 344.90625 -40.1875 L 331.75 -96.453125 C 330.78125 -100.347656 328.101562 -102.296875 323.71875 -102.296875 L 187.796875 -102.296875 C 183.898438 -102.296875 181.460938 -100.347656 180.484375 -96.453125 L 167.34375 -40.1875 C 164.414062 -28.5 158.203125 -18.878906 148.703125 -11.328125 C 139.203125 -3.773438 128.363281 0 116.1875 0 L 46.765625 0 C 36.535156 0 28.375 -4.140625 22.28125 -12.421875 C 16.195312 -20.703125 14.859375 -29.710938 18.265625 -39.453125 L 168.0625 -493.96875 C 171.96875 -505.664062 178.910156 -515.164062 188.890625 -522.46875 C 198.878906 -529.769531 209.960938 -533.421875 222.140625 -533.421875 Z M 222.140625 -533.421875 "/></g></g></g><g fill="rgb(100%, 100%, 100%)" fill-opacity="1"><g transform="translate(2538.659535, 571.380528)"><g><path d="M 60.65625 -41.65625 L 60.65625 -491.78125 C 60.65625 -502.988281 64.796875 -512.726562 73.078125 -521 C 81.359375 -529.28125 91.097656 -533.421875 102.296875 -533.421875 L 179.765625 -533.421875 C 190.960938 -533.421875 200.703125 -529.28125 208.984375 -521 C 217.265625 -512.726562 221.40625 -502.988281 221.40625 -491.78125 L 221.40625 -41.65625 C 221.40625 -30.445312 217.265625 -20.703125 208.984375 -12.421875 C 200.703125 -4.140625 190.960938 0 179.765625 0 L 102.296875 0 C 91.097656 0 81.359375 -4.140625 73.078125 -12.421875 C 64.796875 -20.703125 60.65625 -30.445312 60.65625 -41.65625 Z M 60.65625 -41.65625 "/></g></g></g></svg>